g CFX_Circular
v 0.3325967 0.1377659 3.433227E-08
v 0.36 3.65451E-08 5.679577E-08
v 0.3325966 -0.137766 7.724761E-08
v 0.2545585 0.2545584 1.716614E-08
v 0.2545584 -0.2545584 1.029968E-07
v 0.1377661 0.3325966 -2.036567E-17
v 0.137766 -0.3325966 1.029968E-07
v 4.292957E-09 0.36 -2.204364E-17
v -1.57361E-08 -0.36 1.029968E-07
v -0.1377661 0.3325966 -2.036567E-17
v -0.1377661 -0.3325966 1.029968E-07
v -0.2545584 -0.2545584 1.029968E-07
v -0.2545585 0.2545584 1.716614E-08
v -0.3325966 -0.137766 7.724761E-08
v -0.3325967 0.137766 3.433227E-08
v -0.36 -1.781339E-08 5.679577E-08
vt 0.6913415 0.9619399
vt 0.5 1
vt 0.3086582 0.9619398
vt 0.8535532 0.8535535
vt 0.1464466 0.8535534
vt 0.9619397 0.6913418
vt 0.03806022 0.6913417
vt 1 0.5
vt 0 0.5
vt 0.9619397 0.3086582
vt 0.03806022 0.3086582
vt 0.1464466 0.1464466
vt 0.8535533 0.1464465
vt 0.3086583 0.03806022
vt 0.6913416 0.03806019
vt 0.4999999 0
vn 0 1.553955E-07 1
vn 0 1.553955E-07 1
vn 0 1.553955E-07 1
vn 0 1.553955E-07 1
vn 0 1.553955E-07 1
vn 0 1.553955E-07 1
vn 0 1.553955E-07 1
vn 0 1.553955E-07 1
vn 0 1.553955E-07 1
vn 0 1.553955E-07 1
vn 0 1.553955E-07 1
vn 0 1.553955E-07 1
vn 0 1.553955E-07 1
vn 0 1.553955E-07 1
vn 0 1.553955E-07 1
vn 0 1.553955E-07 1
g CFX_Circular_0
f 3/3/3 2/2/2 1/1/1
f 1/1/1 4/4/4 3/3/3
f 4/4/4 5/5/5 3/3/3
f 4/4/4 6/6/6 5/5/5
f 6/6/6 7/7/7 5/5/5
f 6/6/6 8/8/8 7/7/7
f 8/8/8 9/9/9 7/7/7
f 8/8/8 10/10/10 9/9/9
f 10/10/10 11/11/11 9/9/9
f 10/10/10 12/12/12 11/11/11
f 10/10/10 13/13/13 12/12/12
f 13/13/13 14/14/14 12/12/12
f 13/13/13 15/15/15 14/14/14
f 15/15/15 16/16/16 14/14/14
